# xmcd
#
# Track frame offsets:
#	150
#	10969
#	25550
#	33275
#	43380
#	52367
#	60922
#	71832
#	82347
#	93821
#	104216
#	112587
#	121297
#	135298
#
# Disc length: 1970 seconds
#
# Revision: 1
# Processed by: cddbd v1.5.1PL0 Copyright (c) Steve Scherf et al.
# Submitted via: audiograbber 1.83.01
#
DISCID=ba07b00e
DTITLE=Roger Miller - Wanted
DYEAR=2003
DGENRE=Country
TTITLE0=King Of The Road
TTITLE1=Me And Bobby McGhee
TTITLE2=Dang Me
TTITLE3=Engine Engine
TTITLE4=Chug-A-Lug
TTITLE5=England Swings
TTITLE6=Husbands And Wives
TTITLE7=When Two Worlds Collide
TTITLE8=Walking In The Sunshine
TTITLE9=Kansas City Star
TTITLE10=You Can't Rollerskate In A Buffalo Herd
TTITLE11=My Uncle Used To Love Me But She Died
TTITLE12=My Elusive Dreams
TTITLE13=The Last Word Is Lonesome
EXTD=
EXTT0=
EXTT1=
EXTT2=
EXTT3=
EXTT4=
EXTT5=
EXTT6=
EXTT7=
EXTT8=
EXTT9=
EXTT10=
EXTT11=
EXTT12=
EXTT13=
PLAYORDER=
